<svg xmlns="http://www.w3.org/2000/svg" version="1.1" xmlns:xlink="http://www.w3.org/1999/xlink" xmlns:svgjs="http://svgjs.com/svgjs" width="677" height="677"><svg xmlns="http://www.w3.org/2000/svg" version="1.1" viewBox="0.00 0.00 677.00 677.00">
<g stroke-width="2.00" fill="none" stroke-linecap="butt">
<path stroke="#fecdbb" vector-effect="non-scaling-stroke" d="
  M 677.00 201.25
  Q 676.22 198.12 673.35 195.64
  Q 664.69 188.15 656.52 180.16
  C 651.73 175.47 646.84 171.37 642.16 166.71
  C 635.67 160.26 628.78 154.52 622.33 147.98
  Q 618.17 143.76 613.19 139.40
  Q 607.17 134.12 601.41 127.95
  C 599.58 125.99 597.05 124.61 595.20 122.77
  Q 589.25 116.83 583.14 110.61
  Q 581.88 109.33 576.07 105.95"></path>
<path stroke="#9caba4" vector-effect="non-scaling-stroke" d="
  M 576.07 105.95
  Q 553.19 76.31 518.80 63.73
  Q 509.60 60.37 499.64 58.67
  Q 477.87 54.97 459.61 58.22
  Q 413.97 66.32 384.35 101.42
  C 366.63 122.40 357.08 146.60 355.97 174.42
  Q 355.94 175.01 355.35 174.99
  Q 352.52 174.88 349.50 174.98
  Q 347.81 175.03 347.28 173.40
  Q 340.22 151.52 320.30 142.04
  Q 309.36 136.83 296.75 137.56
  Q 276.60 138.72 262.90 153.07
  Q 246.85 169.87 248.93 193.66
  A 0.60 0.59 -12.9 0 1 248.54 194.27
  Q 245.04 195.56 241.98 197.92
  A 0.83 0.83 0.0 0 1 240.70 197.56
  Q 239.34 194.04 236.93 190.72
  C 226.38 176.13 210.19 168.25 192.40 170.17
  C 170.67 172.51 151.98 189.76 148.78 211.67
  Q 145.64 233.12 158.07 250.10
  Q 159.70 252.32 161.54 254.62
  A 1.13 1.13 0.0 0 1 161.53 256.05
  Q 152.30 267.20 149.13 280.26
  A 2.51 2.51 0.0 0 1 147.49 282.04
  Q 117.72 291.96 99.82 317.27
  C 83.16 340.82 76.74 371.82 85.14 399.25
  Q 89.63 413.89 100.49 425.30
  A 4.01 4.00 17.1 0 1 101.50 427.20
  Q 106.02 447.64 111.38 470.76
  Q 123.55 523.28 134.39 571.74
  Q 137.22 584.37 140.36 590.37
  Q 146.04 601.20 156.86 607.94"></path>
<path stroke="#fecdbb" vector-effect="non-scaling-stroke" d="
  M 156.86 607.94
  Q 160.70 613.61 165.63 618.15
  Q 171.29 623.36 171.34 623.41
  Q 179.85 631.77 188.56 639.93
  Q 208.68 658.80 228.91 677.00"></path>
<path stroke="#9c9188" vector-effect="non-scaling-stroke" d="
  M 576.07 105.95
  Q 580.69 112.81 584.87 119.82
  Q 594.27 135.56 597.97 153.72
  Q 604.53 185.90 594.86 217.22
  Q 587.35 241.57 568.49 262.40
  C 566.63 264.45 564.17 266.02 562.30 268.16
  Q 560.37 270.38 558.11 272.23
  Q 538.65 288.24 513.58 296.34
  Q 513.06 296.51 512.86 297.02
  Q 511.19 301.46 510.10 306.01
  Q 508.15 314.04 505.19 321.49
  A 0.75 0.74 39.0 0 0 505.27 322.21
  Q 526.89 353.52 521.29 390.21
  C 519.63 401.10 515.49 412.33 508.44 420.43
  Q 506.12 423.10 503.71 425.69
  Q 503.34 426.09 503.27 426.65
  Q 502.73 431.28 501.85 435.49
  Q 498.48 451.71 486.23 504.16
  C 483.59 515.46 481.27 527.14 478.50 538.55
  C 475.39 551.31 472.76 564.17 469.88 576.47
  C 469.11 579.80 468.10 583.36 466.40 586.34
  C 464.93 588.92 464.68 591.84 463.11 594.39
  C 457.86 602.85 449.22 609.18 439.98 611.79
  Q 434.75 613.27 423.80 613.28
  Q 313.20 613.36 203.06 613.12
  Q 190.47 613.10 180.99 613.40
  Q 167.98 613.83 156.86 607.94"></path>
<path stroke="#9c7a81" vector-effect="non-scaling-stroke" d="
  M 469.91 154.12
  Q 476.29 142.50 483.10 135.60
  Q 505.02 113.36 528.51 92.39
  A 0.70 0.70 0.0 0 0 528.39 91.27
  Q 504.14 77.35 475.70 78.54"></path>
<path stroke="#9cb7b8" vector-effect="non-scaling-stroke" d="
  M 475.70 78.54
  Q 461.69 79.00 447.98 82.94
  A 0.84 0.83 82.5 0 0 447.38 83.73
  Q 446.87 119.47 456.08 150.56
  Q 458.31 158.12 461.61 165.42
  A 0.35 0.34 50.5 0 0 462.21 165.48
  L 469.91 154.12"></path>
<path stroke="#ffc2c8" vector-effect="non-scaling-stroke" d="
  M 475.70 78.54
  Q 475.89 79.25 474.88 80.15
  A 1.88 1.83 -11.8 0 0 474.34 80.95
  Q 473.70 82.91 473.31 84.93
  Q 468.90 107.88 468.85 132.40
  C 468.83 139.43 469.45 146.80 469.91 154.12"></path>
<path stroke="#9cb7b8" vector-effect="non-scaling-stroke" d="
  M 392.15 124.54
  Q 382.93 140.62 379.20 157.82"></path>
<path stroke="#9c7a81" vector-effect="non-scaling-stroke" d="
  M 379.20 157.82
  Q 377.50 165.70 377.10 171.77
  Q 375.34 198.67 386.93 222.90
  A 1.37 1.36 -21.0 0 0 388.56 223.62
  Q 408.66 217.56 428.49 210.53
  Q 452.79 201.91 471.72 188.09"></path>
<path stroke="#9cb7b8" vector-effect="non-scaling-stroke" d="
  M 471.72 188.09
  L 474.97 185.67
  Q 475.37 185.37 474.88 185.30
  Q 460.12 183.01 449.33 173.87"></path>
<path stroke="#9c7a81" vector-effect="non-scaling-stroke" d="
  M 449.33 173.87
  Q 444.73 163.43 443.21 158.50
  Q 434.37 129.82 431.35 101.72
  Q 430.79 96.57 430.53 91.19
  Q 430.47 89.85 429.20 90.29
  Q 428.18 90.65 427.22 91.20
  Q 414.46 98.46 405.09 108.58
  Q 397.91 116.33 392.15 124.54"></path>
<path stroke="#ffc2c8" vector-effect="non-scaling-stroke" d="
  M 449.33 173.87
  C 444.39 171.72 439.16 169.80 434.81 167.27
  C 417.33 157.08 402.58 142.19 392.15 124.54"></path>
<path stroke="#ffc2c8" vector-effect="non-scaling-stroke" d="
  M 471.72 188.09
  Q 465.16 189.59 460.50 189.76
  C 438.23 190.53 415.86 182.72 397.25 170.94
  C 390.97 166.96 384.35 163.39 379.20 157.82"></path>
<path stroke="#9cb7b8" vector-effect="non-scaling-stroke" d="
  M 537.67 109.28
  Q 532.68 113.22 527.76 117.74
  Q 512.11 132.10 496.69 146.69
  Q 488.01 154.91 480.79 164.50
  C 478.96 166.93 479.74 168.66 482.79 169.06"></path>
<path stroke="#9c7a81" vector-effect="non-scaling-stroke" d="
  M 482.79 169.06
  L 491.56 174.14"></path>
<path stroke="#9cb7b8" vector-effect="non-scaling-stroke" d="
  M 491.56 174.14
  Q 503.98 189.62 514.50 206.35"></path>
<path stroke="#9c7a81" vector-effect="non-scaling-stroke" d="
  M 514.50 206.35
  L 512.24 209.12
  A 1.69 1.68 -53.8 0 1 510.01 209.47
  L 485.72 193.75"></path>
<path stroke="#9cb7b8" vector-effect="non-scaling-stroke" d="
  M 485.72 193.75
  Q 485.10 192.82 484.30 192.33
  Q 483.86 192.06 483.71 192.56
  Q 481.97 198.47 478.97 203.71"></path>
<path stroke="#9c7a81" vector-effect="non-scaling-stroke" d="
  M 478.97 203.71
  L 468.28 211.64"></path>
<path stroke="#9cb7b8" vector-effect="non-scaling-stroke" d="
  M 468.28 211.64
  Q 464.80 213.96 463.25 214.72
  Q 441.67 225.25 417.79 232.33
  Q 406.79 235.59 396.41 238.60
  A 0.29 0.29 0.0 0 0 396.26 239.07
  Q 405.85 250.63 417.79 259.93
  Q 420.78 262.26 423.45 263.94"></path>
<path stroke="#9c7a81" vector-effect="non-scaling-stroke" d="
  M 423.45 263.94
  Q 448.72 280.10 478.56 279.83"></path>
<path stroke="#9caba4" vector-effect="non-scaling-stroke" d="
  M 478.56 279.83
  Q 493.66 280.01 507.77 275.56"></path>
<path stroke="#9c7a81" vector-effect="non-scaling-stroke" d="
  M 507.77 275.56
  Q 531.52 268.31 549.20 252.19"></path>
<path stroke="#9caba4" vector-effect="non-scaling-stroke" d="
  M 549.20 252.19
  Q 557.32 243.72 562.66 235.92
  Q 567.48 228.86 571.13 220.70"></path>
<path stroke="#9c7a81" vector-effect="non-scaling-stroke" d="
  M 571.13 220.70
  Q 574.03 215.21 576.03 207.49
  Q 580.10 191.88 579.66 177.75
  Q 579.47 171.72 579.19 167.54"></path>
<path stroke="#9caba4" vector-effect="non-scaling-stroke" d="
  M 579.19 167.54
  Q 576.87 154.45 575.86 151.15
  Q 571.07 135.45 562.05 122.76
  Q 554.95 112.77 545.58 103.48
  Q 544.81 102.73 544.02 103.45
  L 537.67 109.28"></path>
<path stroke="#ffb6b4" vector-effect="non-scaling-stroke" d="
  M 579.19 167.54
  L 556.31 160.42"></path>
<path stroke="#fff3eb" vector-effect="non-scaling-stroke" d="
  M 556.31 160.42
  Q 555.94 146.07 554.41 141.11
  Q 549.07 123.73 537.67 109.28"></path>
<path stroke="#ffb6b4" vector-effect="non-scaling-stroke" d="
  M 571.13 220.70
  L 551.96 208.40"></path>
<path stroke="#ffc2c8" vector-effect="non-scaling-stroke" d="
  M 551.96 208.40
  Q 529.19 192.55 511.20 183.03
  Q 508.12 181.41 497.28 177.03
  Q 496.04 176.53 494.43 175.60
  Q 492.99 174.76 491.56 174.14"></path>
<path stroke="#ffc2c8" vector-effect="non-scaling-stroke" d="
  M 556.31 160.42
  Q 546.70 159.09 537.77 157.84
  Q 532.55 157.10 528.50 157.33
  Q 504.71 158.66 482.79 169.06"></path>
<path stroke="#fff3eb" vector-effect="non-scaling-stroke" d="
  M 551.96 208.40
  Q 546.18 222.57 534.83 232.90"></path>
<path stroke="#ffc2c8" vector-effect="non-scaling-stroke" d="
  M 534.83 232.90
  L 514.50 206.35"></path>
<path stroke="#ffb6b4" vector-effect="non-scaling-stroke" d="
  M 534.83 232.90
  Q 541.17 242.68 549.20 252.19"></path>
<path stroke="#ffb6b4" vector-effect="non-scaling-stroke" d="
  M 507.77 275.56
  L 502.24 259.47"></path>
<path stroke="#ffc2c8" vector-effect="non-scaling-stroke" d="
  M 485.72 193.75
  Q 489.30 215.48 494.83 235.24
  Q 497.66 245.35 502.24 259.47"></path>
<path stroke="#fff3eb" vector-effect="non-scaling-stroke" d="
  M 502.24 259.47
  Q 493.45 264.20 482.37 267.11
  Q 478.71 268.07 476.98 266.94"></path>
<path stroke="#ffc2c8" vector-effect="non-scaling-stroke" d="
  M 476.98 266.94
  Q 475.10 243.70 476.59 220.75
  Q 476.91 215.86 478.97 203.71"></path>
<path stroke="#ffb6b4" vector-effect="non-scaling-stroke" d="
  M 476.98 266.94
  L 478.56 279.83"></path>
<path stroke="#ffc2c8" vector-effect="non-scaling-stroke" d="
  M 423.45 263.94
  Q 441.78 250.29 453.89 231.15
  Q 457.56 225.35 461.50 218.21
  Q 462.96 215.57 467.80 213.56
  Q 468.33 213.34 468.58 212.85
  Q 468.93 212.14 468.28 211.64"></path>
<path stroke="#9cb7b8" vector-effect="non-scaling-stroke" d="
  M 285.92 160.62
  A 30.34 29.11 15.6 0 0 273.12 171.60"></path>
<path stroke="#9c7a81" vector-effect="non-scaling-stroke" d="
  M 273.12 171.60
  A 30.26 29.07 15.6 0 0 268.81 185.01
  A 30.30 29.12 16.0 0 0 280.67 210.09
  A 30.36 29.20 18.7 0 0 289.62 214.82
  A 30.32 29.14 15.4 0 0 311.23 214.21
  A 30.34 29.12 15.9 0 0 327.54 197.49
  A 30.30 29.13 15.2 0 0 326.60 175.88
  A 30.31 29.12 16.3 0 0 296.76 158.06
  A 30.44 29.26 15.7 0 0 285.92 160.62"></path>
<path stroke="#ffc2c8" vector-effect="non-scaling-stroke" d="
  M 273.12 171.60
  Q 274.66 178.84 279.31 181.84
  C 281.31 183.13 282.81 183.90 285.05 183.44
  Q 291.93 182.04 294.18 177.14
  Q 296.42 172.29 293.90 167.52
  Q 291.63 163.20 285.92 160.62"></path>
<path stroke="#9cb7b8" vector-effect="non-scaling-stroke" d="
  M 185.75 193.08
  Q 177.61 195.22 173.18 202.94"></path>
<path stroke="#9c7a81" vector-effect="non-scaling-stroke" d="
  M 173.18 202.94
  Q 163.71 218.54 172.00 233.56
  Q 174.88 238.77 179.18 242.07
  Q 184.29 245.98 189.43 248.36
  C 190.58 248.89 191.92 248.96 192.91 248.04
  Q 196.45 244.78 199.95 242.91
  Q 215.06 234.85 231.54 238.99"></path>
<path stroke="#9cb7b8" vector-effect="non-scaling-stroke" d="
  M 231.54 238.99
  Q 244.59 242.48 253.36 251.66
  Q 268.15 267.13 266.34 288.32
  C 264.55 309.22 248.32 325.89 227.57 328.59
  Q 207.71 331.18 192.52 317.75
  Q 177.60 304.57 176.57 285.54
  C 176.28 280.14 177.48 274.93 178.30 269.59
  Q 178.38 269.07 177.95 268.78
  A 0.42 0.41 35.9 0 0 177.38 268.87
  Q 166.77 282.52 165.20 299.35
  A 0.55 0.54 1.2 0 1 164.68 299.84
  C 153.37 300.36 141.08 305.65 132.54 312.16
  Q 110.20 329.19 104.22 357.00
  Q 100.43 374.61 104.67 391.77"></path>
<path stroke="#9ca59c" vector-effect="non-scaling-stroke" d="
  M 104.67 391.77
  Q 107.72 402.44 114.34 411.24
  Q 114.69 411.69 115.06 411.26
  C 123.71 401.05 138.32 397.93 151.48 399.82
  Q 169.55 402.42 180.13 416.20
  Q 180.58 416.78 180.99 416.18
  C 182.03 414.67 182.85 413.02 184.07 411.65
  C 193.29 401.36 207.74 398.06 221.59 399.78
  Q 231.05 400.96 238.35 406.07
  C 241.68 408.41 245.36 410.73 247.24 414.50
  A 0.47 0.47 0.0 0 0 248.06 414.54
  Q 250.24 411.01 253.33 408.38
  C 267.02 396.74 288.45 395.69 301.70 408.88
  Q 302.82 409.99 303.57 411.48
  A 0.41 0.41 0.0 0 0 304.29 411.50
  Q 305.53 409.31 307.63 407.63
  C 321.46 396.54 339.60 396.42 352.97 408.45"></path>
<path stroke="#9c9188" vector-effect="non-scaling-stroke" d="
  M 352.97 408.45
  L 357.54 414.55
  A 0.43 0.43 0.0 0 0 358.28 414.47
  C 360.27 410.00 365.51 406.84 369.53 404.27"></path>
<path stroke="#9ca59c" vector-effect="non-scaling-stroke" d="
  M 369.53 404.27
  Q 388.16 395.25 407.21 402.25"></path>
<path stroke="#9c9188" vector-effect="non-scaling-stroke" d="
  M 407.21 402.25
  C 413.98 405.72 419.52 409.92 423.88 416.30
  A 0.73 0.72 47.3 0 0 425.04 416.35
  Q 438.54 399.88 459.29 399.29
  Q 476.72 398.80 488.74 411.62
  A 0.43 0.43 0.0 0 0 489.38 411.60
  Q 502.29 396.16 501.53 375.55
  Q 501.02 361.71 495.93 349.93
  Q 495.56 349.09 495.23 349.95
  Q 493.19 355.18 491.11 360.97
  Q 489.21 366.26 488.04 367.31
  Q 482.87 371.96 475.78 369.32"></path>
<path stroke="#9ca59c" vector-effect="non-scaling-stroke" d="
  M 475.78 369.32
  Q 469.30 364.16 472.38 356.16
  Q 482.86 328.94 491.21 301.04
  A 0.32 0.32 0.0 0 0 490.88 300.63
  L 482.32 301.22"></path>
<path stroke="#9cb7b8" vector-effect="non-scaling-stroke" d="
  M 482.32 301.22
  L 472.90 301.01
  Q 471.81 300.98 471.48 302.02
  Q 468.51 311.37 466.76 320.24
  Q 465.78 325.16 460.80 328.72"></path>
<path stroke="#9ca59c" vector-effect="non-scaling-stroke" d="
  M 460.80 328.72
  Q 445.88 328.04 447.98 314.23
  Q 448.52 310.74 451.57 299.34
  Q 451.71 298.82 451.19 298.69
  Q 441.28 296.25 432.26 292.19
  Q 431.77 291.97 431.63 292.49
  L 429.33 301.09"></path>
<path stroke="#9cb7b8" vector-effect="non-scaling-stroke" d="
  M 429.33 301.09
  Q 420.70 320.24 402.28 326.49
  Q 382.86 333.08 365.22 323.15
  C 357.73 318.94 350.39 310.59 346.90 302.67
  Q 337.90 282.28 348.38 262.73
  Q 356.54 247.51 373.15 241.17
  A 0.71 0.71 0.0 0 0 373.51 240.15
  L 366.54 228.15"></path>
<path stroke="#9caba4" vector-effect="non-scaling-stroke" d="
  M 366.54 228.15
  L 360.95 213.77"></path>
<path stroke="#9c9188" vector-effect="non-scaling-stroke" d="
  M 360.95 213.77
  L 357.89 202.56
  Q 357.74 202.01 357.17 202.01
  L 348.02 202.01
  Q 347.32 202.01 347.07 202.66
  L 345.27 207.24"></path>
<path stroke="#9caba4" vector-effect="non-scaling-stroke" d="
  M 345.27 207.24
  Q 341.83 214.60 336.98 220.22"></path>
<path stroke="#9cb7b8" vector-effect="non-scaling-stroke" d="
  M 336.98 220.22
  Q 327.98 229.37 317.92 233.42
  C 296.29 242.11 272.25 234.75 258.99 215.50
  A 1.19 1.18 59.8 0 0 257.49 215.10
  C 253.13 217.21 246.91 219.74 243.78 223.56"></path>
<path stroke="#9c7a81" vector-effect="non-scaling-stroke" d="
  M 243.78 223.56
  Q 238.02 227.38 231.70 230.11
  Q 230.95 230.43 230.24 230.55
  Q 229.14 230.73 228.70 230.62
  Q 226.77 230.13 226.99 228.16
  Q 228.21 217.26 223.91 208.21
  C 217.00 193.67 201.10 186.22 185.75 193.08"></path>
<path stroke="#ffc2c8" vector-effect="non-scaling-stroke" d="
  M 243.78 223.56
  Q 239.28 229.35 233.97 234.50
  Q 232.90 235.53 231.54 238.99"></path>
<path stroke="#ffc2c8" vector-effect="non-scaling-stroke" d="
  M 173.18 202.94
  Q 173.67 204.14 174.20 207.01
  C 175.06 211.65 179.89 216.26 185.18 215.55
  C 190.22 214.87 194.34 211.44 194.79 206.20
  C 195.19 201.50 193.52 197.47 189.64 195.12
  C 188.31 194.31 187.50 193.19 185.75 193.08"></path>
<path stroke="#ffede3" vector-effect="non-scaling-stroke" d="
  M 429.33 301.09
  Q 430.25 300.61 429.98 302.22
  Q 429.75 303.60 430.03 305.05
  Q 430.28 306.38 431.04 307.52
  C 436.69 315.97 440.46 324.01 440.39 334.35
  C 440.31 346.78 435.57 358.39 429.73 369.48"></path>
<path stroke="#ffede3" vector-effect="non-scaling-stroke" d="
  M 429.73 369.48
  Q 293.44 369.22 157.10 369.33
  Q 147.74 369.33 145.46 368.70
  Q 139.09 366.95 135.62 360.82
  C 130.21 351.28 134.22 338.48 144.16 333.72
  C 151.14 330.38 155.85 326.46 152.72 318.11
  C 150.02 310.88 142.22 316.44 138.45 319.27
  Q 127.14 327.75 120.40 339.40
  Q 107.82 361.13 105.76 385.94
  Q 105.60 387.88 105.93 390.73
  Q 106.00 391.26 105.67 391.61
  Q 105.30 392.01 104.67 391.77"></path>
<path stroke="#fff3eb" vector-effect="non-scaling-stroke" d="
  M 366.54 228.15
  Q 363.55 230.19 360.69 232.20
  C 358.22 233.94 354.53 235.51 351.94 233.45
  Q 346.11 228.82 338.86 224.36
  A 1.55 1.51 6.4 0 1 338.23 223.59
  L 336.98 220.22"></path>
<path stroke="#ffede3" vector-effect="non-scaling-stroke" d="
  M 460.80 328.72
  Q 469.92 332.13 474.04 322.00
  Q 478.17 311.85 482.32 301.22"></path>
<path stroke="#ffc7b2" vector-effect="non-scaling-stroke" d="
  M 475.78 369.32
  L 430.83 369.26
  Q 430.43 369.26 430.06 369.38
  L 429.73 369.48"></path>
<path stroke="#ffc7b2" vector-effect="non-scaling-stroke" d="
  M 429.73 369.48
  Q 427.78 372.86 425.84 376.25
  Q 423.81 379.80 421.66 382.83
  Q 414.75 392.56 407.21 402.25"></path>
<path stroke="#ffc7b2" vector-effect="non-scaling-stroke" d="
  M 369.53 404.27
  Q 365.84 403.97 363.69 405.14
  Q 357.53 408.47 352.97 408.45"></path>
<path stroke="#fecdbb" vector-effect="non-scaling-stroke" d="
  M 360.95 213.77
  Q 358.00 211.37 352.83 210.15
  Q 350.82 209.68 345.27 207.24"></path>
<path stroke="#9cb7b8" vector-effect="non-scaling-stroke" d="
  M 210.29 259.89
  Q 203.06 261.26 200.18 267.75"></path>
<path stroke="#51afaf" vector-effect="non-scaling-stroke" d="
  M 200.18 267.75
  Q 198.98 270.46 197.83 273.23
  C 194.90 280.28 195.10 288.07 198.88 294.35
  Q 203.10 301.37 208.28 304.76
  C 218.01 311.14 229.88 309.23 238.77 302.02
  Q 242.73 298.80 244.41 295.17
  Q 248.05 287.30 246.28 279.30
  Q 244.03 269.15 234.65 262.70
  C 226.69 257.24 219.15 257.91 210.29 259.89"></path>
<path stroke="#b4f7f6" vector-effect="non-scaling-stroke" d="
  M 200.18 267.75
  Q 199.98 272.50 200.65 274.00
  Q 202.52 278.19 206.65 280.17
  C 211.09 282.31 216.80 279.40 219.04 275.45
  Q 221.35 271.38 219.22 265.57
  C 218.60 263.87 217.11 262.68 215.92 261.36
  C 214.49 259.76 212.32 259.68 210.29 259.89"></path>
<path stroke="#51afaf" vector-effect="non-scaling-stroke" d="
  M 366.99 268.56
  Q 359.86 278.40 363.19 289.73
  Q 364.22 293.24 366.39 296.64
  C 370.48 303.03 376.01 307.42 383.74 308.44
  Q 398.10 310.34 407.85 299.40
  Q 412.25 294.47 413.17 285.96
  C 413.31 284.62 413.64 283.29 412.33 282.36
  C 403.39 275.95 395.56 270.02 388.10 261.84
  Q 386.49 260.08 381.95 260.98"></path>
<path stroke="#9cb7b8" vector-effect="non-scaling-stroke" d="
  M 381.95 260.98
  Q 371.66 259.39 366.99 268.56"></path>
<path stroke="#b4f7f6" vector-effect="non-scaling-stroke" d="
  M 381.95 260.98
  Q 381.48 260.94 381.04 261.00
  Q 380.12 261.12 381.03 261.31
  Q 381.91 261.49 382.63 262.21
  Q 385.87 265.46 386.37 270.21
  Q 386.98 276.03 382.05 279.33
  C 377.37 282.46 370.93 280.99 368.29 275.73
  Q 367.68 274.52 367.54 272.19
  Q 367.43 270.35 366.99 268.56"></path>
<path stroke="#9cb7b8" vector-effect="non-scaling-stroke" d="
  M 139.23 420.82
  Q 122.36 424.00 125.85 438.98
  Q 140.18 500.57 154.03 562.26
  Q 156.12 571.58 156.52 573.97
  Q 158.04 583.22 166.97 589.49"></path>
<path stroke="#7ab7b8" vector-effect="non-scaling-stroke" d="
  M 166.97 589.49
  Q 179.65 592.36 194.39 591.22
  Q 194.89 591.18 194.86 590.68
  Q 194.76 588.83 194.50 587.00
  Q 184.34 516.01 174.67 446.45
  C 174.25 443.43 174.43 439.56 172.40 437.09
  Q 168.12 431.89 162.88 427.64
  Q 152.54 419.28 139.23 420.82"></path>
<path stroke="#ddffff" vector-effect="non-scaling-stroke" d="
  M 166.97 589.49
  Q 168.15 588.26 169.90 587.58
  Q 172.27 586.65 172.97 586.12
  C 177.21 582.84 178.01 577.79 175.49 573.01
  Q 173.38 569.01 172.21 563.74
  Q 169.11 549.83 166.44 536.71
  Q 165.03 529.74 163.57 523.05
  Q 162.06 516.15 160.80 509.48
  Q 158.58 497.70 156.08 486.97
  Q 153.97 477.90 152.18 469.02
  C 149.84 457.43 147.45 446.43 145.70 434.61
  C 145.39 432.56 144.36 430.49 143.73 428.46
  Q 143.17 426.68 141.65 424.52
  Q 140.39 422.72 139.23 420.82"></path>
<path stroke="#9cb7b8" vector-effect="non-scaling-stroke" d="
  M 203.95 422.37
  Q 199.39 424.25 196.95 428.24
  Q 196.69 428.66 196.24 428.87
  Q 193.69 430.06 194.12 432.97
  Q 194.74 437.16 195.26 441.16"></path>
<path stroke="#7ab7b8" vector-effect="non-scaling-stroke" d="
  M 195.26 441.16
  L 216.04 590.97
  A 0.47 0.46 85.7 0 0 216.50 591.37
  L 251.07 591.22
  A 0.51 0.51 0.0 0 0 251.58 590.67
  Q 248.31 543.59 244.92 495.98
  C 243.59 477.17 241.89 458.30 240.87 439.48
  C 240.63 435.22 236.03 431.03 233.00 428.23
  Q 220.61 416.81 203.95 422.37"></path>
<path stroke="#ddffff" vector-effect="non-scaling-stroke" d="
  M 195.26 441.16
  Q 197.62 441.48 197.77 439.68
  A 1.19 1.19 0.0 0 1 199.83 438.98
  Q 202.63 442.04 207.43 442.98
  Q 211.52 443.77 214.86 440.57
  C 220.57 435.10 217.42 423.50 208.80 423.63
  Q 207.93 423.64 207.44 423.01
  Q 207.14 422.62 206.65 422.66
  Q 205.28 422.75 203.95 422.37"></path>
<path stroke="#51afaf" vector-effect="non-scaling-stroke" d="
  M 302.95 591.27
  L 331.37 591.17
  Q 331.88 591.17 331.92 590.66
  C 332.99 576.86 334.49 562.09 335.54 548.79
  Q 339.79 495.12 344.50 438.96
  C 345.00 432.95 345.62 429.63 341.46 425.88
  Q 332.74 418.03 323.09 422.66
  C 319.37 424.45 316.15 427.69 313.03 430.56
  Q 310.91 432.51 306.70 433.35"></path>
<path stroke="#7ab7b8" vector-effect="non-scaling-stroke" d="
  M 306.70 433.35
  C 302.48 433.93 297.75 433.44 294.62 430.42
  Q 292.55 428.42 290.38 426.34
  C 281.28 417.61 267.95 419.69 261.43 430.26
  C 260.87 431.16 261.01 432.28 261.09 433.26
  Q 268.13 519.29 272.68 591.15
  A 0.36 0.36 0.0 0 0 273.04 591.49
  L 302.95 591.27"></path>
<path stroke="#91f6f6" vector-effect="non-scaling-stroke" d="
  M 306.70 433.35
  L 302.95 591.27"></path>
<path stroke="#51afaf" vector-effect="non-scaling-stroke" d="
  M 382.57 422.20
  Q 375.47 424.30 368.89 431.88
  C 367.82 433.12 365.90 435.33 365.78 436.75
  C 363.27 466.65 360.34 497.77 358.07 528.98
  Q 355.97 557.89 352.75 590.67
  Q 352.69 591.27 353.30 591.26
  L 388.54 591.22
  Q 389.12 591.22 389.20 590.65
  Q 400.06 516.28 411.76 437.39
  Q 412.16 434.71 410.65 432.35
  Q 400.81 416.81 382.57 422.20"></path>
<path stroke="#51afaf" vector-effect="non-scaling-stroke" d="
  M 444.75 425.79
  C 440.46 428.81 433.78 434.23 432.66 439.10
  C 431.90 442.41 431.83 445.90 431.30 449.21
  Q 428.10 469.09 425.31 488.51
  Q 417.86 540.48 410.39 590.12
  A 0.85 0.85 0.0 0 0 411.22 591.10
  Q 421.26 591.13 429.99 591.27
  C 439.46 591.41 446.37 584.41 448.44 575.33
  Q 463.52 509.24 478.79 442.16
  C 479.69 438.19 480.49 434.20 477.78 430.47
  Q 469.79 419.42 456.77 421.06
  Q 450.32 421.87 444.75 425.79"></path>
<path stroke="#ddffff" vector-effect="non-scaling-stroke" d="
  M 212.72 465.64
  C 208.85 467.23 205.52 469.28 206.18 474.24
  Q 207.65 485.49 218.33 483.84
  C 222.76 483.16 224.17 477.82 224.17 473.97
  Q 224.17 470.77 221.92 468.02
  Q 218.15 463.40 212.72 465.64"></path>
</g>
<path fill="#fee7d7" d="
  M 0.00 0.00
  L 677.00 0.00
  L 677.00 201.25
  Q 676.22 198.12 673.35 195.64
  Q 664.69 188.15 656.52 180.16
  C 651.73 175.47 646.84 171.37 642.16 166.71
  C 635.67 160.26 628.78 154.52 622.33 147.98
  Q 618.17 143.76 613.19 139.40
  Q 607.17 134.12 601.41 127.95
  C 599.58 125.99 597.05 124.61 595.20 122.77
  Q 589.25 116.83 583.14 110.61
  Q 581.88 109.33 576.07 105.95
  Q 553.19 76.31 518.80 63.73
  Q 509.60 60.37 499.64 58.67
  Q 477.87 54.97 459.61 58.22
  Q 413.97 66.32 384.35 101.42
  C 366.63 122.40 357.08 146.60 355.97 174.42
  Q 355.94 175.01 355.35 174.99
  Q 352.52 174.88 349.50 174.98
  Q 347.81 175.03 347.28 173.40
  Q 340.22 151.52 320.30 142.04
  Q 309.36 136.83 296.75 137.56
  Q 276.60 138.72 262.90 153.07
  Q 246.85 169.87 248.93 193.66
  A 0.60 0.59 -12.9 0 1 248.54 194.27
  Q 245.04 195.56 241.98 197.92
  A 0.83 0.83 0.0 0 1 240.70 197.56
  Q 239.34 194.04 236.93 190.72
  C 226.38 176.13 210.19 168.25 192.40 170.17
  C 170.67 172.51 151.98 189.76 148.78 211.67
  Q 145.64 233.12 158.07 250.10
  Q 159.70 252.32 161.54 254.62
  A 1.13 1.13 0.0 0 1 161.53 256.05
  Q 152.30 267.20 149.13 280.26
  A 2.51 2.51 0.0 0 1 147.49 282.04
  Q 117.72 291.96 99.82 317.27
  C 83.16 340.82 76.74 371.82 85.14 399.25
  Q 89.63 413.89 100.49 425.30
  A 4.01 4.00 17.1 0 1 101.50 427.20
  Q 106.02 447.64 111.38 470.76
  Q 123.55 523.28 134.39 571.74
  Q 137.22 584.37 140.36 590.37
  Q 146.04 601.20 156.86 607.94
  Q 160.70 613.61 165.63 618.15
  Q 171.29 623.36 171.34 623.41
  Q 179.85 631.77 188.56 639.93
  Q 208.68 658.80 228.91 677.00
  L 0.00 677.00
  L 0.00 0.00
  Z"></path>
<path fill="#396f71" d="
  M 576.07 105.95
  Q 580.69 112.81 584.87 119.82
  Q 594.27 135.56 597.97 153.72
  Q 604.53 185.90 594.86 217.22
  Q 587.35 241.57 568.49 262.40
  C 566.63 264.45 564.17 266.02 562.30 268.16
  Q 560.37 270.38 558.11 272.23
  Q 538.65 288.24 513.58 296.34
  Q 513.06 296.51 512.86 297.02
  Q 511.19 301.46 510.10 306.01
  Q 508.15 314.04 505.19 321.49
  A 0.75 0.74 39.0 0 0 505.27 322.21
  Q 526.89 353.52 521.29 390.21
  C 519.63 401.10 515.49 412.33 508.44 420.43
  Q 506.12 423.10 503.71 425.69
  Q 503.34 426.09 503.27 426.65
  Q 502.73 431.28 501.85 435.49
  Q 498.48 451.71 486.23 504.16
  C 483.59 515.46 481.27 527.14 478.50 538.55
  C 475.39 551.31 472.76 564.17 469.88 576.47
  C 469.11 579.80 468.10 583.36 466.40 586.34
  C 464.93 588.92 464.68 591.84 463.11 594.39
  C 457.86 602.85 449.22 609.18 439.98 611.79
  Q 434.75 613.27 423.80 613.28
  Q 313.20 613.36 203.06 613.12
  Q 190.47 613.10 180.99 613.40
  Q 167.98 613.83 156.86 607.94
  Q 146.04 601.20 140.36 590.37
  Q 137.22 584.37 134.39 571.74
  Q 123.55 523.28 111.38 470.76
  Q 106.02 447.64 101.50 427.20
  A 4.01 4.00 17.1 0 0 100.49 425.30
  Q 89.63 413.89 85.14 399.25
  C 76.74 371.82 83.16 340.82 99.82 317.27
  Q 117.72 291.96 147.49 282.04
  A 2.51 2.51 0.0 0 0 149.13 280.26
  Q 152.30 267.20 161.53 256.05
  A 1.13 1.13 0.0 0 0 161.54 254.62
  Q 159.70 252.32 158.07 250.10
  Q 145.64 233.12 148.78 211.67
  C 151.98 189.76 170.67 172.51 192.40 170.17
  C 210.19 168.25 226.38 176.13 236.93 190.72
  Q 239.34 194.04 240.70 197.56
  A 0.83 0.83 0.0 0 0 241.98 197.92
  Q 245.04 195.56 248.54 194.27
  A 0.60 0.59 -12.9 0 0 248.93 193.66
  Q 246.85 169.87 262.90 153.07
  Q 276.60 138.72 296.75 137.56
  Q 309.36 136.83 320.30 142.04
  Q 340.22 151.52 347.28 173.40
  Q 347.81 175.03 349.50 174.98
  Q 352.52 174.88 355.35 174.99
  Q 355.94 175.01 355.97 174.42
  C 357.08 146.60 366.63 122.40 384.35 101.42
  Q 413.97 66.32 459.61 58.22
  Q 477.87 54.97 499.64 58.67
  Q 509.60 60.37 518.80 63.73
  Q 553.19 76.31 576.07 105.95
  Z
  M 469.91 154.12
  Q 476.29 142.50 483.10 135.60
  Q 505.02 113.36 528.51 92.39
  A 0.70 0.70 0.0 0 0 528.39 91.27
  Q 504.14 77.35 475.70 78.54
  Q 461.69 79.00 447.98 82.94
  A 0.84 0.83 82.5 0 0 447.38 83.73
  Q 446.87 119.47 456.08 150.56
  Q 458.31 158.12 461.61 165.42
  A 0.35 0.34 50.5 0 0 462.21 165.48
  L 469.91 154.12
  Z
  M 392.15 124.54
  Q 382.93 140.62 379.20 157.82
  Q 377.50 165.70 377.10 171.77
  Q 375.34 198.67 386.93 222.90
  A 1.37 1.36 -21.0 0 0 388.56 223.62
  Q 408.66 217.56 428.49 210.53
  Q 452.79 201.91 471.72 188.09
  L 474.97 185.67
  Q 475.37 185.37 474.88 185.30
  Q 460.12 183.01 449.33 173.87
  Q 444.73 163.43 443.21 158.50
  Q 434.37 129.82 431.35 101.72
  Q 430.79 96.57 430.53 91.19
  Q 430.47 89.85 429.20 90.29
  Q 428.18 90.65 427.22 91.20
  Q 414.46 98.46 405.09 108.58
  Q 397.91 116.33 392.15 124.54
  Z
  M 537.67 109.28
  Q 532.68 113.22 527.76 117.74
  Q 512.11 132.10 496.69 146.69
  Q 488.01 154.91 480.79 164.50
  C 478.96 166.93 479.74 168.66 482.79 169.06
  L 491.56 174.14
  Q 503.98 189.62 514.50 206.35
  L 512.24 209.12
  A 1.69 1.68 -53.8 0 1 510.01 209.47
  L 485.72 193.75
  Q 485.10 192.82 484.30 192.33
  Q 483.86 192.06 483.71 192.56
  Q 481.97 198.47 478.97 203.71
  L 468.28 211.64
  Q 464.80 213.96 463.25 214.72
  Q 441.67 225.25 417.79 232.33
  Q 406.79 235.59 396.41 238.60
  A 0.29 0.29 0.0 0 0 396.26 239.07
  Q 405.85 250.63 417.79 259.93
  Q 420.78 262.26 423.45 263.94
  Q 448.72 280.10 478.56 279.83
  Q 493.66 280.01 507.77 275.56
  Q 531.52 268.31 549.20 252.19
  Q 557.32 243.72 562.66 235.92
  Q 567.48 228.86 571.13 220.70
  Q 574.03 215.21 576.03 207.49
  Q 580.10 191.88 579.66 177.75
  Q 579.47 171.72 579.19 167.54
  Q 576.87 154.45 575.86 151.15
  Q 571.07 135.45 562.05 122.76
  Q 554.95 112.77 545.58 103.48
  Q 544.81 102.73 544.02 103.45
  L 537.67 109.28
  Z
  M 285.92 160.62
  A 30.34 29.11 15.6 0 0 273.12 171.60
  A 30.26 29.07 15.6 0 0 268.81 185.01
  A 30.30 29.12 16.0 0 0 280.67 210.09
  A 30.36 29.20 18.7 0 0 289.62 214.82
  A 30.32 29.14 15.4 0 0 311.23 214.21
  A 30.34 29.12 15.9 0 0 327.54 197.49
  A 30.30 29.13 15.2 0 0 326.60 175.88
  A 30.31 29.12 16.3 0 0 296.76 158.06
  A 30.44 29.26 15.7 0 0 285.92 160.62
  Z
  M 185.75 193.08
  Q 177.61 195.22 173.18 202.94
  Q 163.71 218.54 172.00 233.56
  Q 174.88 238.77 179.18 242.07
  Q 184.29 245.98 189.43 248.36
  C 190.58 248.89 191.92 248.96 192.91 248.04
  Q 196.45 244.78 199.95 242.91
  Q 215.06 234.85 231.54 238.99
  Q 244.59 242.48 253.36 251.66
  Q 268.15 267.13 266.34 288.32
  C 264.55 309.22 248.32 325.89 227.57 328.59
  Q 207.71 331.18 192.52 317.75
  Q 177.60 304.57 176.57 285.54
  C 176.28 280.14 177.48 274.93 178.30 269.59
  Q 178.38 269.07 177.95 268.78
  A 0.42 0.41 35.9 0 0 177.38 268.87
  Q 166.77 282.52 165.20 299.35
  A 0.55 0.54 1.2 0 1 164.68 299.84
  C 153.37 300.36 141.08 305.65 132.54 312.16
  Q 110.20 329.19 104.22 357.00
  Q 100.43 374.61 104.67 391.77
  Q 107.72 402.44 114.34 411.24
  Q 114.69 411.69 115.06 411.26
  C 123.71 401.05 138.32 397.93 151.48 399.82
  Q 169.55 402.42 180.13 416.20
  Q 180.58 416.78 180.99 416.18
  C 182.03 414.67 182.85 413.02 184.07 411.65
  C 193.29 401.36 207.74 398.06 221.59 399.78
  Q 231.05 400.96 238.35 406.07
  C 241.68 408.41 245.36 410.73 247.24 414.50
  A 0.47 0.47 0.0 0 0 248.06 414.54
  Q 250.24 411.01 253.33 408.38
  C 267.02 396.74 288.45 395.69 301.70 408.88
  Q 302.82 409.99 303.57 411.48
  A 0.41 0.41 0.0 0 0 304.29 411.50
  Q 305.53 409.31 307.63 407.63
  C 321.46 396.54 339.60 396.42 352.97 408.45
  L 357.54 414.55
  A 0.43 0.43 0.0 0 0 358.28 414.47
  C 360.27 410.00 365.51 406.84 369.53 404.27
  Q 388.16 395.25 407.21 402.25
  C 413.98 405.72 419.52 409.92 423.88 416.30
  A 0.73 0.72 47.3 0 0 425.04 416.35
  Q 438.54 399.88 459.29 399.29
  Q 476.72 398.80 488.74 411.62
  A 0.43 0.43 0.0 0 0 489.38 411.60
  Q 502.29 396.16 501.53 375.55
  Q 501.02 361.71 495.93 349.93
  Q 495.56 349.09 495.23 349.95
  Q 493.19 355.18 491.11 360.97
  Q 489.21 366.26 488.04 367.31
  Q 482.87 371.96 475.78 369.32
  Q 469.30 364.16 472.38 356.16
  Q 482.86 328.94 491.21 301.04
  A 0.32 0.32 0.0 0 0 490.88 300.63
  L 482.32 301.22
  L 472.90 301.01
  Q 471.81 300.98 471.48 302.02
  Q 468.51 311.37 466.76 320.24
  Q 465.78 325.16 460.80 328.72
  Q 445.88 328.04 447.98 314.23
  Q 448.52 310.74 451.57 299.34
  Q 451.71 298.82 451.19 298.69
  Q 441.28 296.25 432.26 292.19
  Q 431.77 291.97 431.63 292.49
  L 429.33 301.09
  Q 420.70 320.24 402.28 326.49
  Q 382.86 333.08 365.22 323.15
  C 357.73 318.94 350.39 310.59 346.90 302.67
  Q 337.90 282.28 348.38 262.73
  Q 356.54 247.51 373.15 241.17
  A 0.71 0.71 0.0 0 0 373.51 240.15
  L 366.54 228.15
  L 360.95 213.77
  L 357.89 202.56
  Q 357.74 202.01 357.17 202.01
  L 348.02 202.01
  Q 347.32 202.01 347.07 202.66
  L 345.27 207.24
  Q 341.83 214.60 336.98 220.22
  Q 327.98 229.37 317.92 233.42
  C 296.29 242.11 272.25 234.75 258.99 215.50
  A 1.19 1.18 59.8 0 0 257.49 215.10
  C 253.13 217.21 246.91 219.74 243.78 223.56
  Q 238.02 227.38 231.70 230.11
  Q 230.95 230.43 230.24 230.55
  Q 229.14 230.73 228.70 230.62
  Q 226.77 230.13 226.99 228.16
  Q 228.21 217.26 223.91 208.21
  C 217.00 193.67 201.10 186.22 185.75 193.08
  Z
  M 210.29 259.89
  Q 203.06 261.26 200.18 267.75
  Q 198.98 270.46 197.83 273.23
  C 194.90 280.28 195.10 288.07 198.88 294.35
  Q 203.10 301.37 208.28 304.76
  C 218.01 311.14 229.88 309.23 238.77 302.02
  Q 242.73 298.80 244.41 295.17
  Q 248.05 287.30 246.28 279.30
  Q 244.03 269.15 234.65 262.70
  C 226.69 257.24 219.15 257.91 210.29 259.89
  Z
  M 366.99 268.56
  Q 359.86 278.40 363.19 289.73
  Q 364.22 293.24 366.39 296.64
  C 370.48 303.03 376.01 307.42 383.74 308.44
  Q 398.10 310.34 407.85 299.40
  Q 412.25 294.47 413.17 285.96
  C 413.31 284.62 413.64 283.29 412.33 282.36
  C 403.39 275.95 395.56 270.02 388.10 261.84
  Q 386.49 260.08 381.95 260.98
  Q 371.66 259.39 366.99 268.56
  Z
  M 139.23 420.82
  Q 122.36 424.00 125.85 438.98
  Q 140.18 500.57 154.03 562.26
  Q 156.12 571.58 156.52 573.97
  Q 158.04 583.22 166.97 589.49
  Q 179.65 592.36 194.39 591.22
  Q 194.89 591.18 194.86 590.68
  Q 194.76 588.83 194.50 587.00
  Q 184.34 516.01 174.67 446.45
  C 174.25 443.43 174.43 439.56 172.40 437.09
  Q 168.12 431.89 162.88 427.64
  Q 152.54 419.28 139.23 420.82
  Z
  M 203.95 422.37
  Q 199.39 424.25 196.95 428.24
  Q 196.69 428.66 196.24 428.87
  Q 193.69 430.06 194.12 432.97
  Q 194.74 437.16 195.26 441.16
  L 216.04 590.97
  A 0.47 0.46 85.7 0 0 216.50 591.37
  L 251.07 591.22
  A 0.51 0.51 0.0 0 0 251.58 590.67
  Q 248.31 543.59 244.92 495.98
  C 243.59 477.17 241.89 458.30 240.87 439.48
  C 240.63 435.22 236.03 431.03 233.00 428.23
  Q 220.61 416.81 203.95 422.37
  Z
  M 302.95 591.27
  L 331.37 591.17
  Q 331.88 591.17 331.92 590.66
  C 332.99 576.86 334.49 562.09 335.54 548.79
  Q 339.79 495.12 344.50 438.96
  C 345.00 432.95 345.62 429.63 341.46 425.88
  Q 332.74 418.03 323.09 422.66
  C 319.37 424.45 316.15 427.69 313.03 430.56
  Q 310.91 432.51 306.70 433.35
  C 302.48 433.93 297.75 433.44 294.62 430.42
  Q 292.55 428.42 290.38 426.34
  C 281.28 417.61 267.95 419.69 261.43 430.26
  C 260.87 431.16 261.01 432.28 261.09 433.26
  Q 268.13 519.29 272.68 591.15
  A 0.36 0.36 0.0 0 0 273.04 591.49
  L 302.95 591.27
  Z
  M 382.57 422.20
  Q 375.47 424.30 368.89 431.88
  C 367.82 433.12 365.90 435.33 365.78 436.75
  C 363.27 466.65 360.34 497.77 358.07 528.98
  Q 355.97 557.89 352.75 590.67
  Q 352.69 591.27 353.30 591.26
  L 388.54 591.22
  Q 389.12 591.22 389.20 590.65
  Q 400.06 516.28 411.76 437.39
  Q 412.16 434.71 410.65 432.35
  Q 400.81 416.81 382.57 422.20
  Z
  M 444.75 425.79
  C 440.46 428.81 433.78 434.23 432.66 439.10
  C 431.90 442.41 431.83 445.90 431.30 449.21
  Q 428.10 469.09 425.31 488.51
  Q 417.86 540.48 410.39 590.12
  A 0.85 0.85 0.0 0 0 411.22 591.10
  Q 421.26 591.13 429.99 591.27
  C 439.46 591.41 446.37 584.41 448.44 575.33
  Q 463.52 509.24 478.79 442.16
  C 479.69 438.19 480.49 434.20 477.78 430.47
  Q 469.79 419.42 456.77 421.06
  Q 450.32 421.87 444.75 425.79
  Z"></path>
<path fill="#ffffff" d="
  M 475.70 78.54
  Q 475.89 79.25 474.88 80.15
  A 1.88 1.83 -11.8 0 0 474.34 80.95
  Q 473.70 82.91 473.31 84.93
  Q 468.90 107.88 468.85 132.40
  C 468.83 139.43 469.45 146.80 469.91 154.12
  L 462.21 165.48
  A 0.35 0.34 50.5 0 1 461.61 165.42
  Q 458.31 158.12 456.08 150.56
  Q 446.87 119.47 447.38 83.73
  A 0.84 0.83 82.5 0 1 447.98 82.94
  Q 461.69 79.00 475.70 78.54
  Z"></path>
<path fill="#ff8591" d="
  M 475.70 78.54
  Q 504.14 77.35 528.39 91.27
  A 0.70 0.70 0.0 0 1 528.51 92.39
  Q 505.02 113.36 483.10 135.60
  Q 476.29 142.50 469.91 154.12
  C 469.45 146.80 468.83 139.43 468.85 132.40
  Q 468.90 107.88 473.31 84.93
  Q 473.70 82.91 474.34 80.95
  A 1.88 1.83 -11.8 0 1 474.88 80.15
  Q 475.89 79.25 475.70 78.54
  Z"></path>
<path fill="#ff8591" d="
  M 449.33 173.87
  C 444.39 171.72 439.16 169.80 434.81 167.27
  C 417.33 157.08 402.58 142.19 392.15 124.54
  Q 397.91 116.33 405.09 108.58
  Q 414.46 98.46 427.22 91.20
  Q 428.18 90.65 429.20 90.29
  Q 430.47 89.85 430.53 91.19
  Q 430.79 96.57 431.35 101.72
  Q 434.37 129.82 443.21 158.50
  Q 444.73 163.43 449.33 173.87
  Z"></path>
<path fill="#fee7d7" d="
  M 579.19 167.54
  L 556.31 160.42
  Q 555.94 146.07 554.41 141.11
  Q 549.07 123.73 537.67 109.28
  L 544.02 103.45
  Q 544.81 102.73 545.58 103.48
  Q 554.95 112.77 562.05 122.76
  Q 571.07 135.45 575.86 151.15
  Q 576.87 154.45 579.19 167.54
  Z"></path>
<path fill="#feb39e" d="
  M 677.00 201.25
  L 677.00 677.00
  L 228.91 677.00
  Q 208.68 658.80 188.56 639.93
  Q 179.85 631.77 171.34 623.41
  Q 171.29 623.36 165.63 618.15
  Q 160.70 613.61 156.86 607.94
  Q 167.98 613.83 180.99 613.40
  Q 190.47 613.10 203.06 613.12
  Q 313.20 613.36 423.80 613.28
  Q 434.75 613.27 439.98 611.79
  C 449.22 609.18 457.86 602.85 463.11 594.39
  C 464.68 591.84 464.93 588.92 466.40 586.34
  C 468.10 583.36 469.11 579.80 469.88 576.47
  C 472.76 564.17 475.39 551.31 478.50 538.55
  C 481.27 527.14 483.59 515.46 486.23 504.16
  Q 498.48 451.71 501.85 435.49
  Q 502.73 431.28 503.27 426.65
  Q 503.34 426.09 503.71 425.69
  Q 506.12 423.10 508.44 420.43
  C 515.49 412.33 519.63 401.10 521.29 390.21
  Q 526.89 353.52 505.27 322.21
  A 0.75 0.74 39.0 0 1 505.19 321.49
  Q 508.15 314.04 510.10 306.01
  Q 511.19 301.46 512.86 297.02
  Q 513.06 296.51 513.58 296.34
  Q 538.65 288.24 558.11 272.23
  Q 560.37 270.38 562.30 268.16
  C 564.17 266.02 566.63 264.45 568.49 262.40
  Q 587.35 241.57 594.86 217.22
  Q 604.53 185.90 597.97 153.72
  Q 594.27 135.56 584.87 119.82
  Q 580.69 112.81 576.07 105.95
  Q 581.88 109.33 583.14 110.61
  Q 589.25 116.83 595.20 122.77
  C 597.05 124.61 599.58 125.99 601.41 127.95
  Q 607.17 134.12 613.19 139.40
  Q 618.17 143.76 622.33 147.98
  C 628.78 154.52 635.67 160.26 642.16 166.71
  C 646.84 171.37 651.73 175.47 656.52 180.16
  Q 664.69 188.15 673.35 195.64
  Q 676.22 198.12 677.00 201.25
  Z"></path>
<path fill="#ffffff" d="
  M 537.67 109.28
  Q 549.07 123.73 554.41 141.11
  Q 555.94 146.07 556.31 160.42
  Q 546.70 159.09 537.77 157.84
  Q 532.55 157.10 528.50 157.33
  Q 504.71 158.66 482.79 169.06
  C 479.74 168.66 478.96 166.93 480.79 164.50
  Q 488.01 154.91 496.69 146.69
  Q 512.11 132.10 527.76 117.74
  Q 532.68 113.22 537.67 109.28
  Z"></path>
<path fill="#ffffff" d="
  M 392.15 124.54
  C 402.58 142.19 417.33 157.08 434.81 167.27
  C 439.16 169.80 444.39 171.72 449.33 173.87
  Q 460.12 183.01 474.88 185.30
  Q 475.37 185.37 474.97 185.67
  L 471.72 188.09
  Q 465.16 189.59 460.50 189.76
  C 438.23 190.53 415.86 182.72 397.25 170.94
  C 390.97 166.96 384.35 163.39 379.20 157.82
  Q 382.93 140.62 392.15 124.54
  Z"></path>
<path fill="#ff8591" d="
  M 556.31 160.42
  L 579.19 167.54
  Q 579.47 171.72 579.66 177.75
  Q 580.10 191.88 576.03 207.49
  Q 574.03 215.21 571.13 220.70
  L 551.96 208.40
  Q 529.19 192.55 511.20 183.03
  Q 508.12 181.41 497.28 177.03
  Q 496.04 176.53 494.43 175.60
  Q 492.99 174.76 491.56 174.14
  L 482.79 169.06
  Q 504.71 158.66 528.50 157.33
  Q 532.55 157.10 537.77 157.84
  Q 546.70 159.09 556.31 160.42
  Z"></path>
<path fill="#ff8591" d="
  M 273.12 171.60
  Q 274.66 178.84 279.31 181.84
  C 281.31 183.13 282.81 183.90 285.05 183.44
  Q 291.93 182.04 294.18 177.14
  Q 296.42 172.29 293.90 167.52
  Q 291.63 163.20 285.92 160.62
  A 30.44 29.26 15.7 0 1 296.76 158.06
  A 30.31 29.12 16.3 0 1 326.60 175.88
  A 30.30 29.13 15.2 0 1 327.54 197.49
  A 30.34 29.12 15.9 0 1 311.23 214.21
  A 30.32 29.14 15.4 0 1 289.62 214.82
  A 30.36 29.20 18.7 0 1 280.67 210.09
  A 30.30 29.12 16.0 0 1 268.81 185.01
  A 30.26 29.07 15.6 0 1 273.12 171.60
  Z"></path>
<path fill="#ff8591" d="
  M 379.20 157.82
  C 384.35 163.39 390.97 166.96 397.25 170.94
  C 415.86 182.72 438.23 190.53 460.50 189.76
  Q 465.16 189.59 471.72 188.09
  Q 452.79 201.91 428.49 210.53
  Q 408.66 217.56 388.56 223.62
  A 1.37 1.36 -21.0 0 1 386.93 222.90
  Q 375.34 198.67 377.10 171.77
  Q 377.50 165.70 379.20 157.82
  Z"></path>
<path fill="#ffffff" d="
  M 285.92 160.62
  Q 291.63 163.20 293.90 167.52
  Q 296.42 172.29 294.18 177.14
  Q 291.93 182.04 285.05 183.44
  C 282.81 183.90 281.31 183.13 279.31 181.84
  Q 274.66 178.84 273.12 171.60
  A 30.34 29.11 15.6 0 1 285.92 160.62
  Z"></path>
<path fill="#ffffff" d="
  M 551.96 208.40
  Q 546.18 222.57 534.83 232.90
  L 514.50 206.35
  Q 503.98 189.62 491.56 174.14
  Q 492.99 174.76 494.43 175.60
  Q 496.04 176.53 497.28 177.03
  Q 508.12 181.41 511.20 183.03
  Q 529.19 192.55 551.96 208.40
  Z"></path>
<path fill="#ff8591" d="
  M 243.78 223.56
  Q 239.28 229.35 233.97 234.50
  Q 232.90 235.53 231.54 238.99
  Q 215.06 234.85 199.95 242.91
  Q 196.45 244.78 192.91 248.04
  C 191.92 248.96 190.58 248.89 189.43 248.36
  Q 184.29 245.98 179.18 242.07
  Q 174.88 238.77 172.00 233.56
  Q 163.71 218.54 173.18 202.94
  Q 173.67 204.14 174.20 207.01
  C 175.06 211.65 179.89 216.26 185.18 215.55
  C 190.22 214.87 194.34 211.44 194.79 206.20
  C 195.19 201.50 193.52 197.47 189.64 195.12
  C 188.31 194.31 187.50 193.19 185.75 193.08
  C 201.10 186.22 217.00 193.67 223.91 208.21
  Q 228.21 217.26 226.99 228.16
  Q 226.77 230.13 228.70 230.62
  Q 229.14 230.73 230.24 230.55
  Q 230.95 230.43 231.70 230.11
  Q 238.02 227.38 243.78 223.56
  Z"></path>
<path fill="#ffffff" d="
  M 485.72 193.75
  Q 489.30 215.48 494.83 235.24
  Q 497.66 245.35 502.24 259.47
  Q 493.45 264.20 482.37 267.11
  Q 478.71 268.07 476.98 266.94
  Q 475.10 243.70 476.59 220.75
  Q 476.91 215.86 478.97 203.71
  Q 481.97 198.47 483.71 192.56
  Q 483.86 192.06 484.30 192.33
  Q 485.10 192.82 485.72 193.75
  Z"></path>
<path fill="#ffffff" d="
  M 185.75 193.08
  C 187.50 193.19 188.31 194.31 189.64 195.12
  C 193.52 197.47 195.19 201.50 194.79 206.20
  C 194.34 211.44 190.22 214.87 185.18 215.55
  C 179.89 216.26 175.06 211.65 174.20 207.01
  Q 173.67 204.14 173.18 202.94
  Q 177.61 195.22 185.75 193.08
  Z"></path>
<path fill="#ff8591" d="
  M 485.72 193.75
  L 510.01 209.47
  A 1.69 1.68 -53.8 0 0 512.24 209.12
  L 514.50 206.35
  L 534.83 232.90
  Q 541.17 242.68 549.20 252.19
  Q 531.52 268.31 507.77 275.56
  L 502.24 259.47
  Q 497.66 245.35 494.83 235.24
  Q 489.30 215.48 485.72 193.75
  Z"></path>
<path fill="#feb39e" d="
  M 360.95 213.77
  Q 358.00 211.37 352.83 210.15
  Q 350.82 209.68 345.27 207.24
  L 347.07 202.66
  Q 347.32 202.01 348.02 202.01
  L 357.17 202.01
  Q 357.74 202.01 357.89 202.56
  L 360.95 213.77
  Z"></path>
<path fill="#ff8591" d="
  M 478.97 203.71
  Q 476.91 215.86 476.59 220.75
  Q 475.10 243.70 476.98 266.94
  L 478.56 279.83
  Q 448.72 280.10 423.45 263.94
  Q 441.78 250.29 453.89 231.15
  Q 457.56 225.35 461.50 218.21
  Q 462.96 215.57 467.80 213.56
  Q 468.33 213.34 468.58 212.85
  Q 468.93 212.14 468.28 211.64
  L 478.97 203.71
  Z"></path>
<path fill="#fee7d7" d="
  M 345.27 207.24
  Q 350.82 209.68 352.83 210.15
  Q 358.00 211.37 360.95 213.77
  L 366.54 228.15
  Q 363.55 230.19 360.69 232.20
  C 358.22 233.94 354.53 235.51 351.94 233.45
  Q 346.11 228.82 338.86 224.36
  A 1.55 1.51 6.4 0 1 338.23 223.59
  L 336.98 220.22
  Q 341.83 214.60 345.27 207.24
  Z"></path>
<path fill="#fee7d7" d="
  M 551.96 208.40
  L 571.13 220.70
  Q 567.48 228.86 562.66 235.92
  Q 557.32 243.72 549.20 252.19
  Q 541.17 242.68 534.83 232.90
  Q 546.18 222.57 551.96 208.40
  Z"></path>
<path fill="#ffffff" d="
  M 468.28 211.64
  Q 468.93 212.14 468.58 212.85
  Q 468.33 213.34 467.80 213.56
  Q 462.96 215.57 461.50 218.21
  Q 457.56 225.35 453.89 231.15
  Q 441.78 250.29 423.45 263.94
  Q 420.78 262.26 417.79 259.93
  Q 405.85 250.63 396.26 239.07
  A 0.29 0.29 0.0 0 1 396.41 238.60
  Q 406.79 235.59 417.79 232.33
  Q 441.67 225.25 463.25 214.72
  Q 464.80 213.96 468.28 211.64
  Z"></path>
<path fill="#ffffff" d="
  M 336.98 220.22
  L 338.23 223.59
  A 1.55 1.51 6.4 0 0 338.86 224.36
  Q 346.11 228.82 351.94 233.45
  C 354.53 235.51 358.22 233.94 360.69 232.20
  Q 363.55 230.19 366.54 228.15
  L 373.51 240.15
  A 0.71 0.71 0.0 0 1 373.15 241.17
  Q 356.54 247.51 348.38 262.73
  Q 337.90 282.28 346.90 302.67
  C 350.39 310.59 357.73 318.94 365.22 323.15
  Q 382.86 333.08 402.28 326.49
  Q 420.70 320.24 429.33 301.09
  Q 430.25 300.61 429.98 302.22
  Q 429.75 303.60 430.03 305.05
  Q 430.28 306.38 431.04 307.52
  C 436.69 315.97 440.46 324.01 440.39 334.35
  C 440.31 346.78 435.57 358.39 429.73 369.48
  Q 293.44 369.22 157.10 369.33
  Q 147.74 369.33 145.46 368.70
  Q 139.09 366.95 135.62 360.82
  C 130.21 351.28 134.22 338.48 144.16 333.72
  C 151.14 330.38 155.85 326.46 152.72 318.11
  C 150.02 310.88 142.22 316.44 138.45 319.27
  Q 127.14 327.75 120.40 339.40
  Q 107.82 361.13 105.76 385.94
  Q 105.60 387.88 105.93 390.73
  Q 106.00 391.26 105.67 391.61
  Q 105.30 392.01 104.67 391.77
  Q 100.43 374.61 104.22 357.00
  Q 110.20 329.19 132.54 312.16
  C 141.08 305.65 153.37 300.36 164.68 299.84
  A 0.55 0.54 1.2 0 0 165.20 299.35
  Q 166.77 282.52 177.38 268.87
  A 0.42 0.41 35.9 0 1 177.95 268.78
  Q 178.38 269.07 178.30 269.59
  C 177.48 274.93 176.28 280.14 176.57 285.54
  Q 177.60 304.57 192.52 317.75
  Q 207.71 331.18 227.57 328.59
  C 248.32 325.89 264.55 309.22 266.34 288.32
  Q 268.15 267.13 253.36 251.66
  Q 244.59 242.48 231.54 238.99
  Q 232.90 235.53 233.97 234.50
  Q 239.28 229.35 243.78 223.56
  C 246.91 219.74 253.13 217.21 257.49 215.10
  A 1.19 1.18 59.8 0 1 258.99 215.50
  C 272.25 234.75 296.29 242.11 317.92 233.42
  Q 327.98 229.37 336.98 220.22
  Z"></path>
<path fill="#68eeed" d="
  M 200.18 267.75
  Q 199.98 272.50 200.65 274.00
  Q 202.52 278.19 206.65 280.17
  C 211.09 282.31 216.80 279.40 219.04 275.45
  Q 221.35 271.38 219.22 265.57
  C 218.60 263.87 217.11 262.68 215.92 261.36
  C 214.49 259.76 212.32 259.68 210.29 259.89
  C 219.15 257.91 226.69 257.24 234.65 262.70
  Q 244.03 269.15 246.28 279.30
  Q 248.05 287.30 244.41 295.17
  Q 242.73 298.80 238.77 302.02
  C 229.88 309.23 218.01 311.14 208.28 304.76
  Q 203.10 301.37 198.88 294.35
  C 195.10 288.07 194.90 280.28 197.83 273.23
  Q 198.98 270.46 200.18 267.75
  Z"></path>
<path fill="#fee7d7" d="
  M 502.24 259.47
  L 507.77 275.56
  Q 493.66 280.01 478.56 279.83
  L 476.98 266.94
  Q 478.71 268.07 482.37 267.11
  Q 493.45 264.20 502.24 259.47
  Z"></path>
<path fill="#ffffff" d="
  M 210.29 259.89
  C 212.32 259.68 214.49 259.76 215.92 261.36
  C 217.11 262.68 218.60 263.87 219.22 265.57
  Q 221.35 271.38 219.04 275.45
  C 216.80 279.40 211.09 282.31 206.65 280.17
  Q 202.52 278.19 200.65 274.00
  Q 199.98 272.50 200.18 267.75
  Q 203.06 261.26 210.29 259.89
  Z"></path>
<path fill="#ffffff" d="
  M 381.95 260.98
  Q 381.48 260.94 381.04 261.00
  Q 380.12 261.12 381.03 261.31
  Q 381.91 261.49 382.63 262.21
  Q 385.87 265.46 386.37 270.21
  Q 386.98 276.03 382.05 279.33
  C 377.37 282.46 370.93 280.99 368.29 275.73
  Q 367.68 274.52 367.54 272.19
  Q 367.43 270.35 366.99 268.56
  Q 371.66 259.39 381.95 260.98
  Z"></path>
<path fill="#68eeed" d="
  M 366.99 268.56
  Q 367.43 270.35 367.54 272.19
  Q 367.68 274.52 368.29 275.73
  C 370.93 280.99 377.37 282.46 382.05 279.33
  Q 386.98 276.03 386.37 270.21
  Q 385.87 265.46 382.63 262.21
  Q 381.91 261.49 381.03 261.31
  Q 380.12 261.12 381.04 261.00
  Q 381.48 260.94 381.95 260.98
  Q 386.49 260.08 388.10 261.84
  C 395.56 270.02 403.39 275.95 412.33 282.36
  C 413.64 283.29 413.31 284.62 413.17 285.96
  Q 412.25 294.47 407.85 299.40
  Q 398.10 310.34 383.74 308.44
  C 376.01 307.42 370.48 303.03 366.39 296.64
  Q 364.22 293.24 363.19 289.73
  Q 359.86 278.40 366.99 268.56
  Z"></path>
<path fill="#ffdac6" d="
  M 460.80 328.72
  Q 469.92 332.13 474.04 322.00
  Q 478.17 311.85 482.32 301.22
  L 490.88 300.63
  A 0.32 0.32 0.0 0 1 491.21 301.04
  Q 482.86 328.94 472.38 356.16
  Q 469.30 364.16 475.78 369.32
  L 430.83 369.26
  Q 430.43 369.26 430.06 369.38
  L 429.73 369.48
  C 435.57 358.39 440.31 346.78 440.39 334.35
  C 440.46 324.01 436.69 315.97 431.04 307.52
  Q 430.28 306.38 430.03 305.05
  Q 429.75 303.60 429.98 302.22
  Q 430.25 300.61 429.33 301.09
  L 431.63 292.49
  Q 431.77 291.97 432.26 292.19
  Q 441.28 296.25 451.19 298.69
  Q 451.71 298.82 451.57 299.34
  Q 448.52 310.74 447.98 314.23
  Q 445.88 328.04 460.80 328.72
  Z"></path>
<path fill="#ffffff" d="
  M 482.32 301.22
  Q 478.17 311.85 474.04 322.00
  Q 469.92 332.13 460.80 328.72
  Q 465.78 325.16 466.76 320.24
  Q 468.51 311.37 471.48 302.02
  Q 471.81 300.98 472.90 301.01
  L 482.32 301.22
  Z"></path>
<path fill="#ffdac6" d="
  M 429.73 369.48
  Q 427.78 372.86 425.84 376.25
  Q 423.81 379.80 421.66 382.83
  Q 414.75 392.56 407.21 402.25
  Q 388.16 395.25 369.53 404.27
  Q 365.84 403.97 363.69 405.14
  Q 357.53 408.47 352.97 408.45
  C 339.60 396.42 321.46 396.54 307.63 407.63
  Q 305.53 409.31 304.29 411.50
  A 0.41 0.41 0.0 0 1 303.57 411.48
  Q 302.82 409.99 301.70 408.88
  C 288.45 395.69 267.02 396.74 253.33 408.38
  Q 250.24 411.01 248.06 414.54
  A 0.47 0.47 0.0 0 1 247.24 414.50
  C 245.36 410.73 241.68 408.41 238.35 406.07
  Q 231.05 400.96 221.59 399.78
  C 207.74 398.06 193.29 401.36 184.07 411.65
  C 182.85 413.02 182.03 414.67 180.99 416.18
  Q 180.58 416.78 180.13 416.20
  Q 169.55 402.42 151.48 399.82
  C 138.32 397.93 123.71 401.05 115.06 411.26
  Q 114.69 411.69 114.34 411.24
  Q 107.72 402.44 104.67 391.77
  Q 105.30 392.01 105.67 391.61
  Q 106.00 391.26 105.93 390.73
  Q 105.60 387.88 105.76 385.94
  Q 107.82 361.13 120.40 339.40
  Q 127.14 327.75 138.45 319.27
  C 142.22 316.44 150.02 310.88 152.72 318.11
  C 155.85 326.46 151.14 330.38 144.16 333.72
  C 134.22 338.48 130.21 351.28 135.62 360.82
  Q 139.09 366.95 145.46 368.70
  Q 147.74 369.33 157.10 369.33
  Q 293.44 369.22 429.73 369.48
  Z"></path>
<path fill="#feb39e" d="
  M 407.21 402.25
  Q 414.75 392.56 421.66 382.83
  Q 423.81 379.80 425.84 376.25
  Q 427.78 372.86 429.73 369.48
  L 430.06 369.38
  Q 430.43 369.26 430.83 369.26
  L 475.78 369.32
  Q 482.87 371.96 488.04 367.31
  Q 489.21 366.26 491.11 360.97
  Q 493.19 355.18 495.23 349.95
  Q 495.56 349.09 495.93 349.93
  Q 501.02 361.71 501.53 375.55
  Q 502.29 396.16 489.38 411.60
  A 0.43 0.43 0.0 0 1 488.74 411.62
  Q 476.72 398.80 459.29 399.29
  Q 438.54 399.88 425.04 416.35
  A 0.73 0.72 47.3 0 1 423.88 416.30
  C 419.52 409.92 413.98 405.72 407.21 402.25
  Z"></path>
<path fill="#feb39e" d="
  M 369.53 404.27
  C 365.51 406.84 360.27 410.00 358.28 414.47
  A 0.43 0.43 0.0 0 1 357.54 414.55
  L 352.97 408.45
  Q 357.53 408.47 363.69 405.14
  Q 365.84 403.97 369.53 404.27
  Z"></path>
<path fill="#bafefe" d="
  M 166.97 589.49
  Q 168.15 588.26 169.90 587.58
  Q 172.27 586.65 172.97 586.12
  C 177.21 582.84 178.01 577.79 175.49 573.01
  Q 173.38 569.01 172.21 563.74
  Q 169.11 549.83 166.44 536.71
  Q 165.03 529.74 163.57 523.05
  Q 162.06 516.15 160.80 509.48
  Q 158.58 497.70 156.08 486.97
  Q 153.97 477.90 152.18 469.02
  C 149.84 457.43 147.45 446.43 145.70 434.61
  C 145.39 432.56 144.36 430.49 143.73 428.46
  Q 143.17 426.68 141.65 424.52
  Q 140.39 422.72 139.23 420.82
  Q 152.54 419.28 162.88 427.64
  Q 168.12 431.89 172.40 437.09
  C 174.43 439.56 174.25 443.43 174.67 446.45
  Q 184.34 516.01 194.50 587.00
  Q 194.76 588.83 194.86 590.68
  Q 194.89 591.18 194.39 591.22
  Q 179.65 592.36 166.97 589.49
  Z"></path>
<path fill="#bafefe" d="
  M 195.26 441.16
  Q 197.62 441.48 197.77 439.68
  A 1.19 1.19 0.0 0 1 199.83 438.98
  Q 202.63 442.04 207.43 442.98
  Q 211.52 443.77 214.86 440.57
  C 220.57 435.10 217.42 423.50 208.80 423.63
  Q 207.93 423.64 207.44 423.01
  Q 207.14 422.62 206.65 422.66
  Q 205.28 422.75 203.95 422.37
  Q 220.61 416.81 233.00 428.23
  C 236.03 431.03 240.63 435.22 240.87 439.48
  C 241.89 458.30 243.59 477.17 244.92 495.98
  Q 248.31 543.59 251.58 590.67
  A 0.51 0.51 0.0 0 1 251.07 591.22
  L 216.50 591.37
  A 0.47 0.46 85.7 0 1 216.04 590.97
  L 195.26 441.16
  Z
  M 212.72 465.64
  C 208.85 467.23 205.52 469.28 206.18 474.24
  Q 207.65 485.49 218.33 483.84
  C 222.76 483.16 224.17 477.82 224.17 473.97
  Q 224.17 470.77 221.92 468.02
  Q 218.15 463.40 212.72 465.64
  Z"></path>
<path fill="#ffffff" d="
  M 139.23 420.82
  Q 140.39 422.72 141.65 424.52
  Q 143.17 426.68 143.73 428.46
  C 144.36 430.49 145.39 432.56 145.70 434.61
  C 147.45 446.43 149.84 457.43 152.18 469.02
  Q 153.97 477.90 156.08 486.97
  Q 158.58 497.70 160.80 509.48
  Q 162.06 516.15 163.57 523.05
  Q 165.03 529.74 166.44 536.71
  Q 169.11 549.83 172.21 563.74
  Q 173.38 569.01 175.49 573.01
  C 178.01 577.79 177.21 582.84 172.97 586.12
  Q 172.27 586.65 169.90 587.58
  Q 168.15 588.26 166.97 589.49
  Q 158.04 583.22 156.52 573.97
  Q 156.12 571.58 154.03 562.26
  Q 140.18 500.57 125.85 438.98
  Q 122.36 424.00 139.23 420.82
  Z"></path>
<path fill="#bafefe" d="
  M 306.70 433.35
  L 302.95 591.27
  L 273.04 591.49
  A 0.36 0.36 0.0 0 1 272.68 591.15
  Q 268.13 519.29 261.09 433.26
  C 261.01 432.28 260.87 431.16 261.43 430.26
  C 267.95 419.69 281.28 417.61 290.38 426.34
  Q 292.55 428.42 294.62 430.42
  C 297.75 433.44 302.48 433.93 306.70 433.35
  Z"></path>
<path fill="#68eeed" d="
  M 302.95 591.27
  L 306.70 433.35
  Q 310.91 432.51 313.03 430.56
  C 316.15 427.69 319.37 424.45 323.09 422.66
  Q 332.74 418.03 341.46 425.88
  C 345.62 429.63 345.00 432.95 344.50 438.96
  Q 339.79 495.12 335.54 548.79
  C 334.49 562.09 332.99 576.86 331.92 590.66
  Q 331.88 591.17 331.37 591.17
  L 302.95 591.27
  Z"></path>
<path fill="#68eeed" d="
  M 382.57 422.20
  Q 400.81 416.81 410.65 432.35
  Q 412.16 434.71 411.76 437.39
  Q 400.06 516.28 389.20 590.65
  Q 389.12 591.22 388.54 591.22
  L 353.30 591.26
  Q 352.69 591.27 352.75 590.67
  Q 355.97 557.89 358.07 528.98
  C 360.34 497.77 363.27 466.65 365.78 436.75
  C 365.90 435.33 367.82 433.12 368.89 431.88
  Q 375.47 424.30 382.57 422.20
  Z"></path>
<path fill="#68eeed" d="
  M 456.77 421.06
  Q 469.79 419.42 477.78 430.47
  C 480.49 434.20 479.69 438.19 478.79 442.16
  Q 463.52 509.24 448.44 575.33
  C 446.37 584.41 439.46 591.41 429.99 591.27
  Q 421.26 591.13 411.22 591.10
  A 0.85 0.85 0.0 0 1 410.39 590.12
  Q 417.86 540.48 425.31 488.51
  Q 428.10 469.09 431.30 449.21
  C 431.83 445.90 431.90 442.41 432.66 439.10
  C 433.78 434.23 440.46 428.81 444.75 425.79
  Q 450.32 421.87 456.77 421.06
  Z"></path>
<path fill="#ffffff" d="
  M 203.95 422.37
  Q 205.28 422.75 206.65 422.66
  Q 207.14 422.62 207.44 423.01
  Q 207.93 423.64 208.80 423.63
  C 217.42 423.50 220.57 435.10 214.86 440.57
  Q 211.52 443.77 207.43 442.98
  Q 202.63 442.04 199.83 438.98
  A 1.19 1.19 0.0 0 0 197.77 439.68
  Q 197.62 441.48 195.26 441.16
  Q 194.74 437.16 194.12 432.97
  Q 193.69 430.06 196.24 428.87
  Q 196.69 428.66 196.95 428.24
  Q 199.39 424.25 203.95 422.37
  Z"></path>
<path fill="#ffffff" d="
  M 212.72 465.64
  Q 218.15 463.40 221.92 468.02
  Q 224.17 470.77 224.17 473.97
  C 224.17 477.82 222.76 483.16 218.33 483.84
  Q 207.65 485.49 206.18 474.24
  C 205.52 469.28 208.85 467.23 212.72 465.64
  Z"></path>
</svg><style>@media (prefers-color-scheme: light) { :root { filter: none; } }
</style></svg>